<svg width="205" height="208" viewBox="0 0 205 208" fill="none" xmlns="http://www.w3.org/2000/svg">
<rect x="54" y="62.2822" width="96" height="96" rx="18" fill="#00B2FF" stroke="black" stroke-width="4"/>
<rect x="68.5" y="76.7822" width="67" height="67" rx="8.5" fill="#97DDFA" stroke="black" stroke-width="3"/>
<path d="M92.5134 92.7222C92.5934 92.6689 92.9134 92.6422 93.4734 92.6422C94.0601 92.6422 94.3934 92.6689 94.4734 92.7222C94.5534 92.7489 94.6334 92.8022 94.7134 92.8822C94.7668 92.9622 96.1934 97.2689 98.9934 105.802C101.82 114.389 103.247 118.696 103.273 118.722C103.38 118.882 103.767 118.976 104.433 119.002C104.7 119.029 105.273 119.042 106.153 119.042H107.193V120.162V121.282H106.833C106.86 121.282 105.913 121.256 103.993 121.202C102.367 121.176 100.633 121.176 98.7934 121.202L95.5934 121.282H95.1534V120.162V119.042H95.7934C97.2334 119.042 98.1134 118.962 98.4334 118.802C98.4868 118.749 98.5134 118.696 98.5134 118.642C98.5134 118.696 98.2601 117.909 97.7534 116.282C97.3001 114.922 97.0201 114.056 96.9134 113.682L96.8334 113.442H92.3134H87.8334L87.1534 115.482L86.4734 117.642C86.4468 117.856 86.5401 118.069 86.7534 118.282C87.2068 118.709 87.9668 118.962 89.0334 119.042H89.4734V120.162V121.282H89.1134L86.5134 121.202C84.9668 121.176 83.5668 121.176 82.3134 121.202C80.8468 121.256 80.1001 121.282 80.0734 121.282H79.7934V120.162V119.042H80.1934C81.0468 119.042 81.8201 118.949 82.5134 118.762C83.3401 118.496 83.8468 118.149 84.0334 117.722C84.0601 117.669 85.4468 113.509 88.1934 105.242C90.8601 97.1356 92.2201 93.0156 92.2734 92.8822C92.3534 92.8022 92.4334 92.7489 92.5134 92.7222ZM94.1934 105.482L92.3534 99.8022C92.3534 99.8289 91.1001 103.602 88.5934 111.122C88.5934 111.176 89.8334 111.202 92.3134 111.202C94.8201 111.202 96.0734 111.189 96.0734 111.162L94.1934 105.482ZM108.673 95.0822V93.9622H109.113L112.393 94.0422C114.287 94.0689 116.18 94.0689 118.073 94.0422L121.353 93.9622H121.793V95.0822V96.2022H120.633C119.113 96.2022 118.193 96.2422 117.873 96.3222L117.593 96.4422L117.513 96.5222V107.602V118.722L117.593 118.802L117.873 118.922C118.193 119.002 119.113 119.042 120.633 119.042H121.793V120.162V121.282H121.353L118.073 121.202C116.18 121.176 114.287 121.176 112.393 121.202L109.113 121.282H108.673V120.162V119.042H109.833C111.353 119.042 112.273 119.002 112.593 118.922L112.873 118.802L112.953 118.722V107.602V96.5222L112.873 96.4422L112.593 96.3222C112.273 96.2422 111.353 96.2022 109.833 96.2022H108.673V95.0822Z" fill="#0F172A"/>
<path d="M50.8998 19.4634C55.8623 15.2982 62.2731 12.9648 68.7519 12.9657L99.2591 12.9702C105.895 12.9712 108.583 20.3569 103.5 24.6231L80.1337 44.2359C75.1713 48.4011 68.7604 50.7344 62.2816 50.7335L31.7745 50.729C25.1386 50.7281 22.4504 43.3424 27.5332 39.0761L50.8998 19.4634Z" fill="#2A33FF" stroke="black" stroke-width="4"/>
<path d="M26.6688 45.9889C26.3855 45.2105 25.5247 44.8091 24.7462 45.0924C23.9678 45.3758 23.5664 46.2365 23.8497 47.015L25.2593 46.502L26.6688 45.9889ZM34.4806 71.8374L39.6566 60.7374L28.5566 55.5614L23.3807 66.6614L34.4806 71.8374ZM25.2593 46.502L23.8497 47.015L30.1091 64.2124L31.5186 63.6994L32.9282 63.1864L26.6688 45.9889L25.2593 46.502Z" fill="black"/>
<path d="M72.3985 50.0799L39.0842 51.8395L44.9173 67.8657C46.0645 71.0176 49.1655 73.2308 53.2713 73.4657C60.108 73.8568 70.8458 73.919 78.076 71.2874C85.3063 68.6558 93.4919 61.7061 98.4777 57.0119C101.472 54.1928 102.425 50.5041 101.278 47.3522L95.4615 31.3723L72.3985 50.0799Z" fill="#2A33FF"/>
<path d="M95.5155 31.3285L72.3985 50.0799L39.0842 51.8395L44.9173 67.8657C46.0645 71.0176 49.1655 73.2308 53.2713 73.4657C60.108 73.8568 70.8458 73.919 78.076 71.2874C85.3063 68.6558 93.4919 61.7061 98.4777 57.0119C101.472 54.1928 102.425 50.5041 101.278 47.3522L95.4446 31.3259" stroke="black" stroke-width="4" stroke-linecap="round"/>
<path d="M29.6985 58.992L31.935 61.8547L35.3486 60.6122L33.3172 63.6239L35.5538 66.4865L32.0618 65.4852L30.0304 68.4968L29.9036 64.8663L26.4116 63.865L29.8252 62.6225L29.6985 58.992Z" fill="#DBFF00"/>
<path d="M152 85.7822C151.172 85.7822 150.5 86.4538 150.5 87.2822C150.5 88.1107 151.172 88.7822 152 88.7822V87.2822V85.7822ZM179 95.2822C183.418 95.2822 187 91.7005 187 87.2822C187 82.8639 183.418 79.2822 179 79.2822C174.582 79.2822 171 82.8639 171 87.2822C171 91.7005 174.582 95.2822 179 95.2822ZM152 87.2822V88.7822H179V87.2822V85.7822H152V87.2822Z" fill="black"/>
<path d="M103.5 160.282C103.5 159.454 102.828 158.782 102 158.782C101.172 158.782 100.5 159.454 100.5 160.282H102H103.5ZM94 199.282C94 203.701 97.5817 207.282 102 207.282C106.418 207.282 110 203.701 110 199.282C110 194.864 106.418 191.282 102 191.282C97.5817 191.282 94 194.864 94 199.282ZM102 160.282H100.5V199.282H102H103.5V160.282H102Z" fill="black"/>
<path d="M126.5 160.282C126.5 159.454 125.828 158.782 125 158.782C124.172 158.782 123.5 159.454 123.5 160.282H125H126.5ZM117 184.282C117 188.701 120.582 192.282 125 192.282C129.418 192.282 133 188.701 133 184.282C133 179.864 129.418 176.282 125 176.282C120.582 176.282 117 179.864 117 184.282ZM125 160.282H123.5V184.282H125H126.5V160.282H125Z" fill="black"/>
<path d="M80.5 160.282C80.5 159.454 79.8284 158.782 79 158.782C78.1716 158.782 77.5 159.454 77.5 160.282H79H80.5ZM71 179.282C71 183.701 74.5817 187.282 79 187.282C83.4183 187.282 87 183.701 87 179.282C87 174.864 83.4183 171.282 79 171.282C74.5817 171.282 71 174.864 71 179.282ZM79 160.282H77.5V179.282H79H80.5V160.282H79Z" fill="black"/>
<path d="M152 131.782C151.172 131.782 150.5 132.454 150.5 133.282C150.5 134.111 151.172 134.782 152 134.782V133.282V131.782ZM174 141.282C178.418 141.282 182 137.701 182 133.282C182 128.864 178.418 125.282 174 125.282C169.582 125.282 166 128.864 166 133.282C166 137.701 169.582 141.282 174 141.282ZM152 133.282V134.782H174V133.282V131.782H152V133.282Z" fill="black"/>
<path d="M150 108.782C149.172 108.782 148.5 109.454 148.5 110.282C148.5 111.111 149.172 111.782 150 111.782V110.282V108.782ZM197 118.282C201.418 118.282 205 114.701 205 110.282C205 105.864 201.418 102.282 197 102.282C192.582 102.282 189 105.864 189 110.282C189 114.701 192.582 118.282 197 118.282ZM150 110.282V111.782H197V110.282V108.782H150V110.282Z" fill="black"/>
<path d="M52 88.7822C52.8284 88.7822 53.5 88.1107 53.5 87.2822C53.5 86.4538 52.8284 85.7822 52 85.7822V87.2822V88.7822ZM24 79.2822C19.5817 79.2822 16 82.8639 16 87.2822C16 91.7005 19.5817 95.2822 24 95.2822C28.4183 95.2822 32 91.7005 32 87.2822C32 82.8639 28.4183 79.2822 24 79.2822ZM52 87.2822V85.7822H24V87.2822V88.7822H52V87.2822Z" fill="black"/>
<path d="M52 134.782C52.8284 134.782 53.5 134.111 53.5 133.282C53.5 132.454 52.8284 131.782 52 131.782V133.282V134.782ZM31 125.282C26.5817 125.282 23 128.864 23 133.282C23 137.701 26.5817 141.282 31 141.282C35.4183 141.282 39 137.701 39 133.282C39 128.864 35.4183 125.282 31 125.282ZM52 133.282V131.782H31V133.282V134.782H52V133.282Z" fill="black"/>
<path d="M54 111.782C54.8284 111.782 55.5 111.111 55.5 110.282C55.5 109.454 54.8284 108.782 54 108.782V110.282V111.782ZM8 102.282C3.58172 102.282 1.90735e-06 105.864 1.90735e-06 110.282C1.90735e-06 114.701 3.58172 118.282 8 118.282C12.4183 118.282 16 114.701 16 110.282C16 105.864 12.4183 102.282 8 102.282ZM54 110.282V108.782H8V110.282V111.782H54V110.282Z" fill="black"/>
</svg>
